HIERARCHY
ROOT joint_Root
{
	OFFSET 0.0 0.0 0.0
	CHANNELS 6 Xposition Yposition Zposition Zrotation Xrotation Yrotation 
	JOINT Hips
	{
		OFFSET -17.1583 93.1646 452.98
		CHANNELS 6 Xposition Yposition Zposition Zrotation Xrotation Yrotation 
		JOINT Spine
		{
			OFFSET 15.7357 0.0 0.0
			CHANNELS 6 Xposition Yposition Zposition Zrotation Xrotation Yrotation 
			JOINT Chest
			{
				OFFSET 8.98455 -0.406207 0.0
				CHANNELS 6 Xposition Yposition Zposition Zrotation Xrotation Yrotation 
				JOINT Neck
				{
					OFFSET 16.3773 0.0 0.0
					CHANNELS 6 Xposition Yposition Zposition Zrotation Xrotation Yrotation 
					JOINT Head
					{
						OFFSET 6.45672 0.0 0.0
						CHANNELS 6 Xposition Yposition Zposition Zrotation Xrotation Yrotation 
						End Site
						{
							OFFSET 0.0 0.0 0.0
						}
					}
				}
				JOINT Shoulder_L
				{
					OFFSET 12.9942 -0.242716 4.98039
					CHANNELS 6 Xposition Yposition Zposition Zrotation Xrotation Yrotation 
					JOINT UpperArm_L
					{
						OFFSET 5.34809 0.0 0.0
						CHANNELS 6 Xposition Yposition Zposition Zrotation Xrotation Yrotation 
						JOINT LowerArm_L
						{
							OFFSET 24.3286 1.87007e-05 0.0
							CHANNELS 6 Xposition Yposition Zposition Zrotation Xrotation Yrotation 
							JOINT Hand_L
							{
								OFFSET 22.2916 0.0 0.0
								CHANNELS 6 Xposition Yposition Zposition Zrotation Xrotation Yrotation 
								End Site
								{
									OFFSET 0.0 0.0 0.0
								}
							}
						}
					}
				}
				JOINT Shoulder_R
				{
					OFFSET 12.9945 -0.242716 -4.98039
					CHANNELS 6 Xposition Yposition Zposition Zrotation Xrotation Yrotation 
					JOINT UpperArm_R
					{
						OFFSET -5.34813 0.0 0.0
						CHANNELS 6 Xposition Yposition Zposition Zrotation Xrotation Yrotation 
						JOINT LowerArm_R
						{
							OFFSET -24.3289 0.000322201 0.0
							CHANNELS 6 Xposition Yposition Zposition Zrotation Xrotation Yrotation 
							JOINT Hand_R
							{
								OFFSET -22.2915 -0.000108084 0.0
								CHANNELS 6 Xposition Yposition Zposition Zrotation Xrotation Yrotation 
								End Site
								{
									OFFSET 0.0 0.0 0.0
								}
							}
						}
					}
				}
			}
		}
		JOINT UpperLeg_L
		{
			OFFSET -2.19248 -6.46944 0.0
			CHANNELS 6 Xposition Yposition Zposition Zrotation Xrotation Yrotation 
			JOINT LowerLeg_L
			{
				OFFSET 39.0811 0.0 -1.23785e-05
				CHANNELS 6 Xposition Yposition Zposition Zrotation Xrotation Yrotation 
				JOINT Foot_L
				{
					OFFSET 40.9854 0.0 -1.26872e-05
					CHANNELS 6 Xposition Yposition Zposition Zrotation Xrotation Yrotation 
					JOINT Toes_L
					{
						OFFSET 11.7543 0.0 0.0
						CHANNELS 6 Xposition Yposition Zposition Zrotation Xrotation Yrotation 
						End Site
						{
							OFFSET 0.0 0.0 0.0
						}
					}
				}
			}
		}
		JOINT UpperLeg_R
		{
			OFFSET -2.19251 6.46944 0.0
			CHANNELS 6 Xposition Yposition Zposition Zrotation Xrotation Yrotation 
			JOINT LowerLeg_R
			{
				OFFSET -39.0811 -0.00228153 -0.0401928
				CHANNELS 6 Xposition Yposition Zposition Zrotation Xrotation Yrotation 
				JOINT Foot_R
				{
					OFFSET -40.9854 0.0 0.0
					CHANNELS 6 Xposition Yposition Zposition Zrotation Xrotation Yrotation 
					JOINT Toes_R
					{
						OFFSET -11.7543 0.0 0.0
						CHANNELS 6 Xposition Yposition Zposition Zrotation Xrotation Yrotation 
						End Site
						{
							OFFSET 0.0 0.0 0.0
						}
					}
				}
			}
		}
	}
}
MOTION
Frames:	8
Frame Time:	0.0333333
0.000000 0.000000 0.000000 0.000000 0.000000 -0.000000 -1.342630 93.431500 0.647022 88.269400 5.598250 -2.367570 15.735700 0.000005 -0.000001 71.290500 87.797200 -76.053300 8.984550 -0.406207 -0.000000 -3.614670 -0.940063 -9.558430 16.377300 -0.000001 -0.000001 0.294914 1.558690 -11.673500 6.456720 -0.000001 -0.000000 0.963427 1.197930 -15.266000 12.994200 -0.242716 4.980390 -92.457700 7.164180 -71.008900 5.348090 -0.000007 -0.000001 -62.218500 -0.939445 1.311860 24.328600 0.000019 0.000005 10.435400 26.323300 -22.554600 22.291600 -0.000001 0.000005 3.277720 4.890720 9.562070 12.994500 -0.242716 -4.980390 94.085900 -8.742120 -64.826100 -5.348130 -0.000001 -0.000004 -91.959600 -64.780800 -78.728200 -24.328900 0.000322 -0.000009 -0.001904 -75.099400 -0.001112 -22.291500 -0.000108 -0.000004 62.951800 4.795550 11.400800 -2.192480 -6.469440 -0.000000 -172.676000 -1.843740 -2.531360 39.081100 -0.000007 -0.000012 -0.013299 0.069429 10.843200 40.985400 -0.000006 -0.000013 -3.751130 14.845200 -66.495100 11.754300 -0.000000 0.000003 -0.000992 0.182925 -9.156460 -2.192510 6.469440 -0.000001 177.469000 10.835500 -178.440000 -39.081100 -0.002282 -0.040193 0.003696 -0.002999 6.679840 -40.985400 0.000008 0.000006 -9.753600 5.254220 -64.563700 -11.754300 -0.000006 -0.000006 -0.009601 0.268302 -5.673810
0.000000 0.000000 0.000000 0.000000 0.000000 -0.000000 -1.320270 93.423500 0.713002 88.346200 5.816230 -2.437370 15.735700 0.000005 -0.000001 69.942600 87.853200 -74.673800 8.984550 -0.406207 -0.000000 -3.756680 -0.996578 -9.498590 16.377300 -0.000001 -0.000001 0.344075 1.058550 -11.211700 6.456720 -0.000001 -0.000000 1.015960 0.874757 -14.899200 12.994200 -0.242716 4.980390 -92.432500 7.107230 -71.050700 5.348090 -0.000007 -0.000001 -62.003000 -1.628620 1.457830 24.328600 0.000019 0.000005 10.404600 26.386600 -22.448100 22.291600 -0.000001 0.000005 3.546520 4.887850 9.619420 12.994500 -0.242716 -4.980390 94.015200 -8.361160 -64.232300 -5.348130 -0.000001 -0.000004 -89.168700 -64.165400 -80.793200 -24.328900 0.000322 -0.000009 -0.001688 -73.026900 -0.000969 -22.291500 -0.000108 -0.000004 60.867300 4.832850 10.688000 -2.192480 -6.469440 -0.000000 -172.726000 -2.058650 -2.600740 39.081100 -0.000007 -0.000012 -0.014549 0.075953 10.843600 40.985400 -0.000006 -0.000013 -3.787220 15.297700 -66.465900 11.754300 -0.000000 0.000003 -0.001166 0.185359 -9.057540 -2.192510 6.469440 -0.000001 177.414000 10.840600 -178.487000 -39.081100 -0.002282 -0.040193 0.003759 -0.003491 6.781820 -40.985400 0.000008 0.000006 -9.706010 5.034820 -64.676800 -11.754300 -0.000006 -0.000006 -0.009476 0.267348 -5.712790
0.000000 0.000000 0.000000 0.000000 0.000000 -0.000000 -1.307660 93.424300 0.776501 88.456100 6.097770 -2.474350 15.735700 0.000005 -0.000001 68.545400 87.896100 -73.248700 8.984550 -0.406207 -0.000000 -3.876350 -1.060880 -9.446310 16.377300 -0.000001 -0.000001 0.386643 0.447194 -10.500000 6.456720 -0.000001 -0.000000 1.081330 0.375138 -14.851400 12.994200 -0.242716 4.980390 -92.409400 7.052970 -71.084200 5.348090 -0.000007 -0.000001 -61.809300 -1.875880 1.563980 24.328600 0.000019 0.000005 10.407200 26.366000 -22.468100 22.291600 -0.000001 0.000005 3.511990 4.886810 9.639980 12.994500 -0.242716 -4.980390 93.904500 -7.891810 -63.568100 -5.348130 -0.000001 -0.000004 -83.284900 -63.620900 -81.730100 -24.328900 0.000322 -0.000009 -0.001538 -69.003600 -0.000769 -22.291500 -0.000108 -0.000004 57.974700 4.910720 9.146620 -2.192480 -6.469440 -0.000000 -172.790000 -2.025510 -2.543980 39.081100 -0.000007 -0.000012 -0.015861 0.084474 10.633400 40.985400 -0.000006 -0.000013 -3.984380 15.595300 -66.244600 11.754300 -0.000000 0.000003 -0.001155 0.185217 -9.063340 -2.192510 6.469440 -0.000001 177.322000 10.879200 -178.464000 -39.081100 -0.002282 -0.040193 0.003935 -0.004932 6.834600 -40.985400 0.000008 0.000006 -9.799720 4.804490 -64.781200 -11.754300 -0.000006 -0.000006 -0.009345 0.266343 -5.753880
0.000000 0.000000 0.000000 0.000000 0.000000 -0.000000 -1.319500 93.420000 0.845943 88.532300 6.314460 -2.505900 15.735700 0.000005 -0.000001 67.383000 87.942600 -72.030600 8.984550 -0.406207 -0.000000 -3.995940 -1.104960 -9.337950 16.377300 -0.000001 -0.000001 0.443925 -0.153861 -9.866560 6.456720 -0.000001 -0.000000 1.166930 -0.109374 -14.977900 12.994200 -0.242716 4.980390 -92.404900 7.044400 -71.096100 5.348090 -0.000007 -0.000001 -61.629900 -1.977860 1.639180 24.328600 0.000019 0.000005 10.523000 26.507700 -22.596500 22.291600 -0.000001 0.000005 3.410860 4.889660 9.583520 12.994500 -0.242716 -4.980390 93.762600 -7.374970 -62.872200 -5.348130 -0.000001 -0.000004 -75.778500 -63.425400 -82.344000 -24.328900 0.000322 -0.000009 -0.001203 -64.299800 -0.000613 -22.291500 -0.000108 -0.000004 54.175500 4.993000 7.441490 -2.192480 -6.469440 -0.000000 -172.824000 -2.048230 -2.506360 39.081100 -0.000007 -0.000012 -0.016865 0.090932 10.506500 40.985400 -0.000006 -0.000013 -4.113760 15.838500 -66.107500 11.754300 -0.000000 0.000003 -0.001034 0.183520 -9.132290 -2.192510 6.469440 -0.000001 177.277000 10.827700 -178.470000 -39.081100 -0.002282 -0.040193 0.003961 -0.005074 6.937180 -40.985400 0.000008 0.000006 -9.771420 4.575990 -64.931800 -11.754300 -0.000006 -0.000006 -0.009554 0.267943 -5.688470
0.000000 0.000000 0.000000 0.000000 0.000000 -0.000000 -1.350460 93.420100 0.902190 88.624700 6.448320 -2.569740 15.735700 0.000005 -0.000001 65.767300 88.018300 -70.368400 8.984550 -0.406207 -0.000000 -4.181720 -1.146470 -9.249040 16.377300 -0.000001 -0.000001 0.614799 -0.714279 -9.244540 6.456720 -0.000001 -0.000000 1.241340 -0.530526 -15.276900 12.994200 -0.242716 4.980390 -92.395100 7.017400 -71.100800 5.348090 -0.000007 -0.000001 -61.524300 -2.286990 1.725790 24.328600 0.000019 0.000005 10.568800 26.497600 -22.694300 22.291600 -0.000001 0.000005 3.389820 4.888570 9.605390 12.994500 -0.242716 -4.980390 93.646900 -6.992850 -62.367000 -5.348130 -0.000001 -0.000004 -69.742100 -64.025900 -84.226400 -24.328900 0.000322 -0.000009 -0.000588 -60.092400 -0.000512 -22.291500 -0.000108 -0.000004 50.045100 5.084990 5.425930 -2.192480 -6.469440 -0.000000 -172.848000 -2.084480 -2.434540 39.081100 -0.000007 -0.000012 -0.017943 0.099175 10.254900 40.985400 -0.000006 -0.000013 -4.339970 16.049000 -65.902900 11.754300 -0.000000 0.000003 -0.001095 0.184381 -9.097310 -2.192510 6.469440 -0.000001 177.240000 10.762400 -178.509000 -39.081100 -0.002282 -0.040193 0.004130 -0.006394 7.011910 -40.985400 0.000008 0.000006 -9.749370 4.371490 -65.057400 -11.754300 -0.000006 -0.000006 -0.009187 0.265125 -5.803680
0.000000 0.000000 0.000000 0.000000 0.000000 -0.000000 -1.416650 93.433000 0.948056 88.718100 6.505770 -2.646510 15.735700 0.000005 -0.000001 64.514300 88.089000 -69.110800 8.984550 -0.406207 -0.000000 -4.346210 -1.158100 -9.242470 16.377300 -0.000001 -0.000001 0.774527 -1.228930 -8.563110 6.456720 -0.000001 -0.000000 1.293390 -0.874018 -15.532600 12.994200 -0.242716 4.980390 -92.404000 7.039460 -71.090500 5.348090 -0.000007 -0.000001 -61.380400 -2.638640 1.727480 24.328600 0.000019 0.000005 10.647700 26.476100 -22.865200 22.291600 -0.000001 0.000005 3.653050 4.883390 9.707460 12.994500 -0.242716 -4.980390 93.562400 -6.789940 -62.229700 -5.348130 -0.000001 -0.000004 -67.218100 -65.549700 -87.903300 -24.328900 0.000322 -0.000009 0.001358 -55.763100 -0.000433 -22.291500 -0.000108 -0.000004 46.483800 5.182290 3.134140 -2.192480 -6.469440 -0.000000 -172.831000 -2.281230 -2.297470 39.081100 -0.000007 -0.000012 -0.020430 0.117839 9.835380 40.985400 -0.000006 -0.000013 -4.880230 16.340600 -65.472000 11.754300 -0.000000 0.000003 -0.001052 0.183771 -9.122110 -2.192510 6.469440 -0.000001 177.226000 10.601600 -178.551000 -39.081100 -0.002282 -0.040193 0.004287 -0.007653 7.025460 -40.985400 0.000008 0.000006 -9.681610 4.156680 -65.204800 -11.754300 -0.000006 -0.000006 -0.009671 0.268828 -5.652280
0.000000 0.000000 0.000000 0.000000 0.000000 -0.000000 -1.506130 93.425900 0.968520 88.753200 6.485180 -2.690030 15.735700 0.000005 -0.000001 64.843800 88.147500 -69.446500 8.984550 -0.406207 -0.000000 -4.439700 -1.084100 -9.253130 16.377300 -0.000001 -0.000001 0.964601 -1.712720 -7.934850 6.456720 -0.000001 -0.000000 1.268750 -1.170550 -15.721800 12.994200 -0.242716 4.980390 -92.441400 7.143150 -71.074500 5.348090 -0.000007 -0.000001 -61.217100 -2.894920 1.514000 24.328600 0.000019 0.000005 10.708600 26.517700 -22.955300 22.291600 -0.000001 0.000005 3.796920 4.876180 9.849680 12.994500 -0.242716 -4.980390 93.529800 -6.762600 -62.352800 -5.348130 -0.000001 -0.000004 -70.943100 -67.315700 -95.331200 -24.328900 0.000322 -0.000009 -5.379520 -48.204100 -7.206300 -22.291500 -0.000108 -0.000004 43.548300 5.291890 0.264872 -2.192480 -6.469440 -0.000000 -172.769000 -2.527280 -2.277080 39.081100 -0.000007 -0.000012 -0.021412 0.125112 9.711390 40.985400 -0.000006 -0.000013 -5.104010 16.646100 -65.256400 11.754300 -0.000000 0.000003 -0.001038 0.183579 -9.129870 -2.192510 6.469440 -0.000001 177.278000 10.476400 -178.628000 -39.081100 -0.002282 -0.040193 0.004387 -0.008372 7.103580 -40.985400 0.000008 0.000006 -9.579970 4.036180 -65.278400 -11.754300 -0.000006 -0.000006 -0.009568 0.268046 -5.684260
0.000000 0.000000 0.000000 0.000000 0.000000 -0.000000 -1.599870 93.431100 0.953268 88.793600 6.475190 -2.712870 15.735700 0.000005 -0.000001 66.126100 88.170000 -70.723400 8.984550 -0.406207 -0.000000 -4.442700 -0.990936 -9.238540 16.377300 -0.000001 -0.000001 1.090090 -2.046370 -7.464610 6.456720 -0.000001 -0.000000 1.147460 -1.399840 -15.978800 12.994200 -0.242716 4.980390 -92.491200 7.299940 -71.098700 5.348090 -0.000007 -0.000001 -61.227300 -3.043230 1.293460 24.328600 0.000019 0.000005 10.605300 26.088500 -23.063200 22.291600 -0.000001 0.000005 4.048000 4.875750 9.858060 12.994500 -0.242716 -4.980390 93.459100 -6.728290 -62.709900 -5.348130 -0.000001 -0.000004 -73.041300 -69.094100 -100.389000 -24.328900 0.000322 -0.000009 -9.505890 -37.188300 -15.500800 -22.291500 -0.000108 -0.000004 41.126100 5.360630 -1.708840 -2.192480 -6.469440 -0.000000 -172.719000 -2.640520 -2.180270 39.081100 -0.000007 -0.000012 -0.021901 0.131806 9.433930 40.985400 -0.000006 -0.000013 -5.378940 16.755900 -64.975500 11.754300 -0.000000 0.000003 -0.000855 0.180958 -9.236410 -2.192510 6.469440 -0.000001 177.296000 10.455200 -178.680000 -39.081100 -0.002282 -0.040193 0.004670 -0.010589 7.138500 -40.985400 0.000008 0.000006 -9.616000 4.042230 -65.308100 -11.754300 -0.000006 -0.000006 -0.009366 0.266502 -5.747380
